<svg version="1.2" xmlns="http://www.w3.org/2000/svg" viewBox="0 0 800 800" width="800" height="800"><style>.a{opacity:1;fill:currentColor}.b{opacity:1}</style><path class="a" d="m331.3 207l42.7 12 5.4 2.6v8.1l-20 44-56.1 73.5h200.3l-40.1-48.1-40-72.1 1.3-4 42.7-16 20.1 37.3 30.7 40.1 33.4 33.4 48.1 33.4 4 6.7-32.1 40-42.7-26.7-1.4 74.8-9.3 73.5-12 30.7-13.4 13.4-25.4 8-53.4 1.3-8-49.4 53.4-1.3 6.7-5.4 6.7-32 4-88.2-73.5-1.3-20 69.4-26.7 46.8-48.1 44.1-38.7 17.3-29.4-41.4 48.1-28 29.3-29.4 24.1-48.1 8-30.7h-69.5l-2.6-22.7-30.7 25.3-10.7 2.7-29.4-32-4-10.7 37.4-25.4 32-32.1 29.4-40z"/><path fill-rule="evenodd" class="b" d="m12.8 398.8l75.2-93 46.5-44.2 39.8-29.9 43.2-25.5 37.6-16.6 66.4-18.8 54.3-6.6h45.3l55.4 6.6 66.4 18.8 58.6 27.7 32.1 19.9 46.5 36.5 36.5 35.4 39.9 47.6 28.7 41v4.4l-40.9 56.4-35.4 41-47.6 43.2-32.1 23.2-39.9 24.3-61.9 27.7-37.7 11.1-54.2 8.8h-67.5l-57.5-8.8-37.7-11.1-47.5-19.9-51-28.8-45.3-34.3-37.7-35.4-47.5-55.3-31-43.2zm307.6-184.8l-39.8 12.2-36.5 15.5-37.7 21-69.7 54.2-35.4 37.6-34.3 44.3 33.2 46.5 35.4 37.6 50.9 42.1 45.4 27.6 56.4 24.4 73.1 16.6h76.3l60.9-12.2 59.8-23.2 35.4-20 48.7-35.4 48.7-47.6 33.2-40.9 8.8-16.6-40.9-50.9-37.7-37.6-45.3-35.5-54.3-32-36.5-15.5-56.4-15.5-29.9-4.5h-65.3z"/></svg>
